<svg id="Foreground" xmlns="http://www.w3.org/2000/svg" viewBox="0 0 235.01 52.06"><defs><style>.cls-1{fill:#004386;}</style></defs><title>nc-biotech</title><path class="cls-1" d="M1.35,3.48H6.77l4,12.72h.05V3.48h4.81V25.06h-5.4l-4-13.34H6.15V25.06H1.35Z" transform="translate(-1.35 -3.13)"/><path class="cls-1" d="M17.79,12.36c0-2,1.05-4.91,5.7-4.91s5.7,2.89,5.7,4.91v8.13c0,2-1.05,4.91-5.7,4.91s-5.7-2.89-5.7-4.91Zm4.64,8.45c0,.59,0,1.4,1.05,1.4s1.05-.81,1.05-1.4V12c0-.59,0-1.4-1.05-1.4s-1.05.81-1.05,1.4Z" transform="translate(-1.35 -3.13)"/><path class="cls-1" d="M31.29,7.8h4.4v3.05h.05c.65-1.59,1.21-3.4,3.32-3.4v5.62H38c-1.59,0-2.05,1-2.05,2.19v9.8H31.29Z" transform="translate(-1.35 -3.13)"/><path class="cls-1" d="M40.63,11.34H39.47V8h1.16V4.24h4.64V8h1.16v3.35H45.27v9.23c0,.43,0,1.32.62,1.32h.59v3.51H44.25c-2,0-3.62-.41-3.62-3.1Z" transform="translate(-1.35 -3.13)"/><path class="cls-1" d="M47.79,3.48h4.64V9.4h.05a3.59,3.59,0,0,1,3.37-1.94c2.21,0,3.32,1.62,3.32,3.7V25.06H54.54V13.26c0-.62,0-1.65-1.05-1.65s-1.05,1.24-1.05,1.65v11.8H47.79Z" transform="translate(-1.35 -3.13)"/><path class="cls-1" d="M68.09,9.37c0-4.21,2.7-6.24,6.4-6.24s6.4,2,6.4,6.24v2h-5V8.94c0-.73,0-2-1.43-2s-1.43,1.24-1.43,2V19.6c0,.57,0,2,1.43,2s1.43-1.4,1.43-2V16.44h5v2.73c0,3.83-2.46,6.24-6.4,6.24s-6.4-2.4-6.4-6.24Z" transform="translate(-1.35 -3.13)"/><path class="cls-1" d="M94.44,25.06H90.18V23.73h-.05a4,4,0,0,1-3.29,1.67c-3.4,0-3.78-2.48-3.78-5.26,0-3.24,1.81-4.32,3.51-5.08s3.4-1.13,3.4-3c0-.92-.22-1.43-1.08-1.43a1.06,1.06,0,0,0-1.19,1.19v1.4H83.37V11.66c0-2.54,2.27-4.21,5.45-4.21,4.18,0,5.62,1.67,5.62,5.4ZM90,16.39l-1.3.94a1.78,1.78,0,0,0-.81,1.54v2.29c0,1,.38,1.38,1,1.38S90,21.87,90,21Z" transform="translate(-1.35 -3.13)"/><path class="cls-1" d="M96.55,7.8h4.4v3.05H101c.65-1.59,1.22-3.4,3.32-3.4v5.62h-1.08c-1.59,0-2.05,1-2.05,2.19v9.8H96.55Z" transform="translate(-1.35 -3.13)"/><path class="cls-1" d="M105.54,12.36c0-2,1.05-4.91,5.7-4.91s5.7,2.89,5.7,4.91v8.13c0,2-1.05,4.91-5.7,4.91s-5.7-2.89-5.7-4.91Zm4.64,8.45c0,.59,0,1.4,1.05,1.4s1.05-.81,1.05-1.4V12c0-.59,0-1.4-1.05-1.4s-1.05.81-1.05,1.4Z" transform="translate(-1.35 -3.13)"/><path class="cls-1" d="M119.42,3.48h4.64V25.06h-4.64Z" transform="translate(-1.35 -3.13)"/><path class="cls-1" d="M126.92,3.48h4.64V6.67h-4.64Zm0,4.32h4.64V25.06h-4.64Z" transform="translate(-1.35 -3.13)"/><path class="cls-1" d="M134.05,7.8h4.48V9.72h.05a3.71,3.71,0,0,1,3.54-2.27c2.21,0,3.32,1.62,3.32,3.7V25.06H140.8V13.26c0-.62,0-1.65-1.05-1.65s-1.05,1.24-1.05,1.65v11.8h-4.64Z" transform="translate(-1.35 -3.13)"/><path class="cls-1" d="M158.94,25.06h-4.27V23.73h-.05a4,4,0,0,1-3.29,1.67c-3.4,0-3.78-2.48-3.78-5.26,0-3.24,1.81-4.32,3.51-5.08s3.4-1.13,3.4-3c0-.92-.21-1.43-1.08-1.43a1.06,1.06,0,0,0-1.19,1.19v1.4h-4.32V11.66c0-2.54,2.27-4.21,5.45-4.21,4.18,0,5.62,1.67,5.62,5.4Zm-4.48-8.67-1.29.94a1.78,1.78,0,0,0-.81,1.54v2.29c0,1,.38,1.38,1,1.38s1.08-.68,1.08-1.51Z" transform="translate(-1.35 -3.13)"/><path class="cls-1" d="M1.35,30.48H8.23c3.62,0,5.37,1.38,5.37,5.08,0,2.27-.32,4.27-2.73,5.08v.05c2.43.43,3.27,2.24,3.27,5,0,3.62-1.32,6.4-5.75,6.4h-7Zm5,8.53h.92C8.8,39,9,37.85,9,36.5c0-1.51-.32-2.35-1.54-2.35H6.31Zm0,9.37h1c1.65,0,1.84-.81,1.84-2.94,0-1.49-.19-2.92-1.73-2.92H6.31Z" transform="translate(-1.35 -3.13)"/><path class="cls-1" d="M16.68,30.48h4.64v3.19H16.68Zm0,4.32h4.64V52.06H16.68Z" transform="translate(-1.35 -3.13)"/><path class="cls-1" d="M23.81,39.36c0-2,1.05-4.91,5.7-4.91s5.7,2.89,5.7,4.91v8.13c0,2-1.05,4.91-5.7,4.91s-5.7-2.89-5.7-4.91Zm4.64,8.45c0,.59,0,1.4,1.05,1.4s1.05-.81,1.05-1.4V39c0-.59,0-1.4-1.05-1.4s-1.05.81-1.05,1.4Z" transform="translate(-1.35 -3.13)"/><path class="cls-1" d="M37.66,38.34H36.5V35h1.16V31.24h4.64V35h1.16v3.35H42.31v9.23c0,.43,0,1.32.62,1.32h.59v3.51H41.28c-2,0-3.62-.41-3.62-3.1Z" transform="translate(-1.35 -3.13)"/><path class="cls-1" d="M44.82,39.36c0-2,1.05-4.91,5.7-4.91s5.7,2.89,5.7,4.91v4.75H49.46v3.7c0,.59,0,1.4,1.05,1.4s1.05-.81,1.05-1.4V45.66h4.64v1.84c0,2-1.05,4.91-5.7,4.91s-5.7-2.89-5.7-4.91Zm4.64,1.57h2.11V39c0-.59,0-1.4-1.05-1.4s-1.05.81-1.05,1.4Z" transform="translate(-1.35 -3.13)"/><path class="cls-1" d="M58.32,39.36c0-2,1.05-4.91,5.7-4.91s5.7,2.89,5.7,4.91V41.2H65.07V39c0-.59,0-1.4-1.05-1.4S63,38.45,63,39v8.78c0,.59,0,1.4,1.05,1.4s1.05-.81,1.05-1.4v-3.1h4.64v2.78c0,2-1.05,4.91-5.7,4.91s-5.7-2.89-5.7-4.91Z" transform="translate(-1.35 -3.13)"/><path class="cls-1" d="M71.82,30.48h4.64V36.4h.05a3.59,3.59,0,0,1,3.37-1.94c2.21,0,3.32,1.62,3.32,3.7V52.06H78.57V40.26c0-.62,0-1.65-1.05-1.65s-1.05,1.24-1.05,1.65v11.8H71.82Z" transform="translate(-1.35 -3.13)"/><path class="cls-1" d="M85.32,34.8H89.8v1.92h.05a3.71,3.71,0,0,1,3.54-2.27c2.21,0,3.32,1.62,3.32,3.7V52.06H92.07V40.26c0-.62,0-1.65-1.05-1.65S90,39.85,90,40.26v11.8H85.32Z" transform="translate(-1.35 -3.13)"/><path class="cls-1" d="M98.82,39.36c0-2,1.05-4.91,5.7-4.91s5.7,2.89,5.7,4.91v8.13c0,2-1.05,4.91-5.7,4.91s-5.7-2.89-5.7-4.91Zm4.64,8.45c0,.59,0,1.4,1.05,1.4s1.05-.81,1.05-1.4V39c0-.59,0-1.4-1.05-1.4s-1.05.81-1.05,1.4Z" transform="translate(-1.35 -3.13)"/><path class="cls-1" d="M112.69,30.48h4.64V52.06h-4.64Z" transform="translate(-1.35 -3.13)"/><path class="cls-1" d="M119.82,39.36c0-2,1.05-4.91,5.7-4.91s5.7,2.89,5.7,4.91v8.13c0,2-1.05,4.91-5.7,4.91s-5.7-2.89-5.7-4.91Zm4.64,8.45c0,.59,0,1.4,1.05,1.4s1.05-.81,1.05-1.4V39c0-.59,0-1.4-1.05-1.4s-1.05.81-1.05,1.4Z" transform="translate(-1.35 -3.13)"/><path class="cls-1" d="M144.72,50c0,3.94-1.81,5.16-5.64,5.16-2.59,0-5.18-.73-5.51-3.67H138a1.25,1.25,0,0,0,.27.89,1,1,0,0,0,.76.22c.65,0,1-.43,1-1.19V48.38l-.05-.05a3.17,3.17,0,0,1-3.19,2.05c-2,0-3.54-1.54-3.54-4.1v-6.4c0-2.62.49-5.43,3.7-5.43,1.67,0,2.48.86,3.13,2.27h.05V34.8h4.51ZM138,45.76c0,.94.46,1.27.95,1.27,1.16,0,1.16-1.86,1.16-2.46V40.09c0-1.62-.65-2.13-1.16-2.13s-.95.22-.95,1.27Z" transform="translate(-1.35 -3.13)"/><path class="cls-1" d="M147.2,51.84h1.05c.43,0,.78-.11.78-.62a12.69,12.69,0,0,0-.3-1.94L145.9,34.8h4.75l1.16,12.12h.05l1.19-12.12h4.56l-3,15.79a6.66,6.66,0,0,1-1.43,3.51c-.73.73-1.81,1.08-3.81,1.08H147.2Z" transform="translate(-1.35 -3.13)"/><path class="cls-1" d="M165.61,36.37c0-4.21,2.7-6.24,6.4-6.24s6.4,2,6.4,6.24v2h-5V35.94c0-.73,0-2-1.43-2s-1.43,1.24-1.43,2V46.6c0,.57,0,2,1.43,2s1.43-1.4,1.43-2V43.44h5v2.73c0,3.83-2.46,6.24-6.4,6.24s-6.4-2.4-6.4-6.24Z" transform="translate(-1.35 -3.13)"/><path class="cls-1" d="M180.57,39.36c0-2,1.05-4.91,5.7-4.91s5.7,2.89,5.7,4.91v4.75h-6.75v3.7c0,.59,0,1.4,1.05,1.4s1.05-.81,1.05-1.4V45.66H192v1.84c0,2-1.05,4.91-5.7,4.91s-5.7-2.89-5.7-4.91Zm4.64,1.57h2.11V39c0-.59,0-1.4-1.05-1.4s-1.05.81-1.05,1.4Z" transform="translate(-1.35 -3.13)"/><path class="cls-1" d="M194.07,34.8h4.48v1.92h.05a3.71,3.71,0,0,1,3.54-2.27c2.21,0,3.32,1.62,3.32,3.7V52.06h-4.64V40.26c0-.62,0-1.65-1.05-1.65s-1.05,1.24-1.05,1.65v11.8h-4.64Z" transform="translate(-1.35 -3.13)"/><path class="cls-1" d="M207.92,38.34h-1.16V35h1.16V31.24h4.64V35h1.16v3.35h-1.16v9.23c0,.43,0,1.32.62,1.32h.59v3.51h-2.24c-2,0-3.62-.41-3.62-3.1Z" transform="translate(-1.35 -3.13)"/><path class="cls-1" d="M215.08,39.36c0-2,1.05-4.91,5.7-4.91s5.7,2.89,5.7,4.91v4.75h-6.75v3.7c0,.59,0,1.4,1.05,1.4s1.05-.81,1.05-1.4V45.66h4.64v1.84c0,2-1.05,4.91-5.7,4.91s-5.7-2.89-5.7-4.91Zm4.64,1.57h2.11V39c0-.59,0-1.4-1.05-1.4s-1.05.81-1.05,1.4Z" transform="translate(-1.35 -3.13)"/><path class="cls-1" d="M228.58,34.8H233v3.05H233c.65-1.59,1.21-3.4,3.32-3.4v5.62h-1.08c-1.59,0-2.05,1-2.05,2.19v9.8h-4.64Z" transform="translate(-1.35 -3.13)"/></svg>